<svg xmlns="http://www.w3.org/2000/svg" width="539.312" height="539.836" viewBox="0 0 539.312 539.836">
  <g id="noun-battery-1078210" transform="translate(-79.528 -11.761)">
    <path id="Caminho_32" data-name="Caminho 32" d="M533.12,412.16a222.809,222.809,0,0,0,42-131.04c.559-61.039-22.4-118.16-64.961-160.72C467.6,77.279,410.479,53.759,350,53.759c-124.88,0-226.24,101.36-226.24,226.24S225.119,506.239,350,506.239c21.84,0,42.559-2.8,62.16-8.961l1.121-.559-4.48-22.4-1.68.559c-19.039,5.6-38.641,8.961-58.238,8.961-112,0-203.28-91.281-203.28-203.28s91.281-203.28,203.28-203.28,203.28,91.281,203.28,203.28c0,43.121-13.441,84.559-39.2,120.4l-1.121,1.121,19.6,11.2Z" fill="#eb6f00"/>
    <path id="Caminho_33" data-name="Caminho 33" d="M540.96,91.281C490,40.32,422.24,11.761,350,11.761a255.9,255.9,0,0,0-72.238,10.078l-1.121.559,3.922,20.719,1.68-.559A256.944,256.944,0,0,1,350,33.039c137.2,0,249.2,111.44,249.2,249.2s-112,248.64-249.2,248.64c-137.2-.559-249.2-112-249.2-249.2a245.89,245.89,0,0,1,45.922-143.92l1.121-1.121L129.368,126l-.559,1.121a268.76,268.76,0,0,0-49.281,155.12c0,148.4,120.96,269.36,269.36,269.36,148.96,0,269.92-120.96,269.92-269.36,1.117-72.238-26.883-140-77.844-190.96Z" fill="#eb6f00"/>
    <path id="Caminho_34" data-name="Caminho 34" d="M458.08,204.4H225.12c-16.238,0-29.68,12.32-29.68,26.879v100.8c0,14.559,13.441,26.879,29.68,26.879H458.08c16.238,0,29.68-12.32,29.68-26.879v-16.8h12.879c8.961,0,16.238-7.84,16.238-17.359V264.88c0-9.52-7.281-17.359-16.238-17.359H487.76v-16.8c-.562-14-13.441-26.32-29.684-26.32Zm12.32,26.883v100.8c0,5.6-5.6,9.52-12.32,9.52H225.12c-6.719,0-12.32-4.48-12.32-9.52v-100.8c0-5.6,5.6-9.52,12.32-9.52H458.08c6.719,0,12.316,4.477,12.316,9.52Z" fill="#eb6f00"/>
    <path id="Caminho_35" data-name="Caminho 35" d="M268.8,230.16H225.679a5.614,5.614,0,0,0-5.6,5.6V327.6a5.614,5.614,0,0,0,5.6,5.6H268.8a5.614,5.614,0,0,0,5.6-5.6l0-91.84A5.611,5.611,0,0,0,268.8,230.16Z" fill="#eb6f00"/>
    <path id="Caminho_36" data-name="Caminho 36" d="M418.88,246.96l-45.922,31.359L361.2,262.077a2.913,2.913,0,0,0-2.238-1.121,3.369,3.369,0,0,0-2.238.559l-52.641,48.719a3.446,3.446,0,0,0-.559,3.922,2.913,2.913,0,0,0,2.238,1.121c.559,0,1.121,0,1.121-.559l47.6-26.879,12.879,14a2.913,2.913,0,0,0,2.238,1.121c.559,0,1.68-.559,2.238-.559l50.961-51.52a2.707,2.707,0,0,0,0-3.922c-1.121-1.121-2.242-1.121-3.922,0Z" fill="#eb6f00"/>
  </g>
</svg>
