<svg xmlns="http://www.w3.org/2000/svg" width="454.962" height="544.622" viewBox="0 0 454.962 544.622">
  <g id="noun-celsius-73025" transform="translate(-122.5 -7.708)">
    <path id="Caminho_20" data-name="Caminho 20" d="M418.55,99.262a35,35,0,1,0-35,35,35.055,35.055,0,0,0,35-35Z" fill="#eb6f00"/>
    <path id="Caminho_21" data-name="Caminho 21" d="M557.62,273.96a81.68,81.68,0,1,1,0-116.039,11.665,11.665,0,0,0,16.4-16.59,104.987,104.987,0,1,0,0,149.223,11.666,11.666,0,1,0-16.4-16.594Z" fill="#eb6f00"/>
    <path id="Caminho_22" data-name="Caminho 22" d="M285.83,435.63a46.668,46.668,0,1,1-46.668-46.668A46.669,46.669,0,0,1,285.83,435.63Z" fill="#eb6f00"/>
    <path id="Caminho_23" data-name="Caminho 23" d="M297.5,335.09V66.04a58.332,58.332,0,0,0-116.664,0V335.12a116.645,116.645,0,1,0,116.668-.03ZM239.168,505.64a69.873,69.873,0,0,1-11.246-138.855,10.331,10.331,0,0,1-.422-2.1v-140a11.668,11.668,0,0,1,23.336,0v140a10.385,10.385,0,0,1-.422,2.1A69.873,69.873,0,0,1,239.168,505.64Z" fill="#eb6f00"/>
  </g>
</svg>
