<svg xmlns="http://www.w3.org/2000/svg" width="330.607" height="368.255" viewBox="0 0 330.607 368.255">
  <g id="noun-pressure-3721302" transform="translate(-184.69 -95.867)">
    <path id="Caminho_24" data-name="Caminho 24" d="M379.95,229.92a29.618,29.618,0,0,0-4.3-15.234l37.746-37.746a7.364,7.364,0,1,0-10.414-10.414l-37.742,37.746a29.62,29.62,0,0,0-15.23-4.309A29.953,29.953,0,1,0,379.95,229.92ZM350,245.139A15.223,15.223,0,1,1,365.22,229.92,15.236,15.236,0,0,1,350,245.139Z" fill="#eb6f00"/>
    <path id="Caminho_25" data-name="Caminho 25" d="M184.69,379.18v77.578a7.361,7.361,0,0,0,7.363,7.363h45.992a7.361,7.361,0,0,0,7.363-7.363v-8.352h209.17v8.352a7.361,7.361,0,0,0,7.363,7.363h45.992a7.361,7.361,0,0,0,7.363-7.363V379.18a7.361,7.361,0,0,0-7.363-7.363H461.942a7.361,7.361,0,0,0-7.363,7.363v8.344H381.665V360.016a133.971,133.971,0,0,0,62.758-35.082c.109-.1.254-.133.359-.238s.141-.246.238-.355a133.754,133.754,0,0,0,.007-188.844c-.1-.113-.137-.262-.246-.371s-.258-.145-.371-.246a133.753,133.753,0,0,0-188.824,0c-.117.1-.262.137-.375.25s-.145.258-.246.371a133.758,133.758,0,0,0,.008,188.84c.1.109.133.254.238.359s.25.141.359.238a133.977,133.977,0,0,0,62.754,35.082v27.508H245.411V379.18a7.361,7.361,0,0,0-7.363-7.363H192.055a7.364,7.364,0,0,0-7.363,7.363Zm284.62,7.367h31.262V449.4H469.31ZM350,334.168a7.361,7.361,0,0,0-7.363,7.363v7.316A118.644,118.644,0,0,1,271.129,319.2l5.152-5.152a7.364,7.364,0,1,0-10.414-10.414l-5.152,5.152a118.615,118.615,0,0,1-29.652-71.5h7.32a7.363,7.363,0,1,0,0-14.727h-7.32a118.648,118.648,0,0,1,29.656-71.508l5.148,5.152a7.364,7.364,0,1,0,10.414-10.414l-5.148-5.152a118.626,118.626,0,0,1,71.508-29.652v7.316a7.363,7.363,0,0,0,14.727,0v-7.316a118.643,118.643,0,0,1,71.5,29.652l-5.152,5.152A7.364,7.364,0,0,0,434.133,156.2l5.152-5.152a118.666,118.666,0,0,1,29.656,71.512h-7.32a7.363,7.363,0,1,0,0,14.727h7.32a118.632,118.632,0,0,1-29.652,71.5l-5.152-5.156a7.364,7.364,0,0,0-10.414,10.414l5.152,5.156a118.65,118.65,0,0,1-71.508,29.652v-7.316A7.365,7.365,0,0,0,350,334.168Zm-16.941,28.594a121.019,121.019,0,0,0,33.879,0v24.762H333.059ZM325.7,402.254h128.89V433.68l-209.17,0V402.254Zm-126.27-15.707h31.262V449.4H199.426Z" fill="#eb6f00"/>
  </g>
</svg>
