<svg id="noun-speedometer-1580093" xmlns="http://www.w3.org/2000/svg" width="502.118" height="347.18" viewBox="0 0 502.118 347.18">
  <path id="Caminho_1" data-name="Caminho 1" d="M422.023,331.76A25.918,25.918,0,1,1,398.062,348.3l-73.781-90.691,89.125,75.738a25.436,25.436,0,0,1,8.617-1.59Z" transform="translate(-170.955 -106.41)" fill="#eb6f00"/>
  <path id="Caminho_2" data-name="Caminho 2" d="M434.11,453.59H265.92V401.117H434.11Zm-11.668-40.8H277.592v29.137h144.85Z" transform="translate(-98.962 -106.41)" fill="#eb6f00"/>
  <path id="Caminho_3" data-name="Caminho 3" d="M317.913,418.62H303.64v17.473h14.273Z" transform="translate(-20.485 -106.41)" fill="#eb6f00"/>
  <path id="Caminho_4" data-name="Caminho 4" d="M344.063,418.62H329.79v17.473h14.273Z" transform="translate(-72.785 -106.41)" fill="#eb6f00"/>
  <path id="Caminho_5" data-name="Caminho 5" d="M370.233,418.62H355.96v17.473h14.273Z" transform="translate(-125.125 -106.41)" fill="#eb6f00"/>
  <path id="Caminho_6" data-name="Caminho 6" d="M396.4,418.62H382.11v17.473H396.4Z" transform="translate(-177.437 -106.41)" fill="#eb6f00"/>
  <path id="Caminho_7" data-name="Caminho 7" d="M350.018,106.41c138.43,0,251.05,112.62,251.05,251.05h-17.5a233.175,233.175,0,0,0-5.105-48.523l-27.23,7.3-6.359-23.688,27.219-7.3a231.862,231.862,0,0,0-14.047-33.75l-24.359,14.051L521.424,244.32l24.324-14.035a235.491,235.491,0,0,0-22.242-28.98l-19.867,19.863L486.3,203.82l19.863-19.855a235.84,235.84,0,0,0-28.973-22.238l-14.051,24.324L441.9,173.778l14.07-24.348A231.625,231.625,0,0,0,422.2,135.371l-7.285,27.211-23.688-6.34,7.3-27.242a233.6,233.6,0,0,0-36.242-4.773v28.2H337.76v-28.2A232.259,232.259,0,0,0,301.5,129l7.3,27.254-23.7,6.359-7.3-27.234a231.525,231.525,0,0,0-33.723,14.035l14.035,24.336-21.227,12.254L222.861,161.7a235.052,235.052,0,0,0-29.02,22.266L213.7,203.82,196.36,221.164,176.5,201.3a235.381,235.381,0,0,0-22.238,28.98L178.6,244.32l-12.266,21.246L141.97,251.5a231.484,231.484,0,0,0-14.051,33.781l27.2,7.293-6.34,23.676-27.23-7.281a233.931,233.931,0,0,0-5.094,48.488H98.95c.008-138.43,112.63-251.05,251.06-251.05Z" transform="translate(-98.95 -106.41)" fill="#eb6f00"/>
</svg>
