<svg xmlns="http://www.w3.org/2000/svg" width="502.118" height="347.18" viewBox="0 0 502.118 347.18">
  <g id="noun-speedometer-1580093" transform="translate(-98.95 -106.41)">
    <path id="Caminho_1" data-name="Caminho 1" d="M350,331.76A25.918,25.918,0,1,0,373.961,348.3l73.781-90.691L358.617,333.35A25.436,25.436,0,0,0,350,331.76Z" fill="#eb6f00"/>
    <path id="Caminho_2" data-name="Caminho 2" d="M265.92,453.59H434.11V401.117H265.92Zm11.668-40.8h144.85v29.137H277.588Z" fill="#eb6f00"/>
    <path id="Caminho_3" data-name="Caminho 3" d="M303.64,418.62h14.273v17.473H303.64Z" fill="#eb6f00"/>
    <path id="Caminho_4" data-name="Caminho 4" d="M329.79,418.62h14.273v17.473H329.79Z" fill="#eb6f00"/>
    <path id="Caminho_5" data-name="Caminho 5" d="M355.96,418.62h14.273v17.473H355.96Z" fill="#eb6f00"/>
    <path id="Caminho_6" data-name="Caminho 6" d="M382.11,418.62h14.285v17.473H382.11Z" fill="#eb6f00"/>
    <path id="Caminho_7" data-name="Caminho 7" d="M350,106.41c-138.43,0-251.05,112.62-251.05,251.05h17.5a233.174,233.174,0,0,1,5.105-48.523l27.23,7.3,6.359-23.688-27.219-7.3a231.866,231.866,0,0,1,14.047-33.75l24.359,14.051,12.262-21.238L154.27,230.285a235.494,235.494,0,0,1,22.242-28.98l19.867,19.863,17.336-17.348-19.863-19.855a235.839,235.839,0,0,1,28.973-22.238l14.051,24.324,21.238-12.273-14.07-24.348a231.625,231.625,0,0,1,33.773-14.059l7.285,27.211,23.688-6.34L301.493,129a233.6,233.6,0,0,1,36.242-4.773v28.2h24.523v-28.2A232.259,232.259,0,0,1,398.52,129l-7.3,27.254,23.7,6.359,7.3-27.234a231.525,231.525,0,0,1,33.723,14.035L441.9,173.754l21.227,12.254L477.157,161.7a235.052,235.052,0,0,1,29.02,22.266L486.314,203.82l17.344,17.344L523.513,201.3a235.381,235.381,0,0,1,22.238,28.98L521.415,244.32l12.266,21.246L558.048,251.5A231.486,231.486,0,0,1,572.1,285.285l-27.2,7.293,6.34,23.676,27.23-7.281a233.931,233.931,0,0,1,5.094,48.488h17.5c-.008-138.43-112.63-251.05-251.06-251.05Z" fill="#eb6f00"/>
  </g>
</svg>
