<svg xmlns="http://www.w3.org/2000/svg" width="484.328" height="484.331" viewBox="0 0 484.328 484.331">
  <g id="noun-psi-measuring-3868869" transform="translate(-107.837 -37.836)">
    <path id="Caminho_8" data-name="Caminho 8" d="M457.99,37.836c-74.012,0-134.25,60.164-134.25,134.17,0,57.438,36.4,106.48,87.328,125.55v29.969a20.8,20.8,0,0,0,20.812,20.812h5.3v130.31a1.872,1.872,0,0,1-1.891,1.891H387.763a1.872,1.872,0,0,1-1.891-1.891V400.7a43.567,43.567,0,0,0-43.512-43.512H305.052l0-268.27a51.27,51.27,0,0,0-51.156-51.082H158.919A51.159,51.159,0,0,0,107.837,88.92V404.19a51.159,51.159,0,0,0,51.082,51.082h94.973a51.159,51.159,0,0,0,51.082-51.082v-5.371h37.309a1.872,1.872,0,0,1,1.891,1.891v77.945a43.567,43.567,0,0,0,43.512,43.512h47.523a43.567,43.567,0,0,0,43.512-43.512l0-130.31h5.3a20.8,20.8,0,0,0,20.812-20.812V297.564c50.93-19.066,87.332-68.105,87.332-125.54a134.3,134.3,0,0,0-134.18-134.18ZM159.83,443.916h-.906a39.727,39.727,0,0,1-39.73-39.73v-2.648c8.629,3.707,24.215,10.367,26.184,10.367a5.167,5.167,0,0,0,4.844-3.859,6.1,6.1,0,0,0-3.027-7.492l-28-11.578v-31.18c8.629,3.707,24.215,10.367,26.184,10.367a5.167,5.167,0,0,0,4.844-3.859,6.1,6.1,0,0,0-3.027-7.492l-28-11.574v-31.18c8.629,3.707,24.215,10.367,26.184,10.367a5.167,5.167,0,0,0,4.844-3.859,6.1,6.1,0,0,0-3.027-7.492l-28-11.578v-31.18c8.629,3.707,24.215,10.367,26.184,10.367a5.167,5.167,0,0,0,4.844-3.859,6.1,6.1,0,0,0-3.027-7.492l-28-11.578v-31.18c8.629,3.707,24.215,10.367,26.184,10.367a5.167,5.167,0,0,0,4.844-3.859,6.1,6.1,0,0,0-3.027-7.492l-28-11.574v-31.18c8.629,3.707,24.215,10.367,26.184,10.367a5.167,5.167,0,0,0,4.844-3.859,6.1,6.1,0,0,0-3.027-7.492l-28-11.578V139.09c8.629,3.707,24.215,10.367,26.184,10.367a5.167,5.167,0,0,0,4.844-3.859,6.1,6.1,0,0,0-3.027-7.492l-28-11.574V95.351c8.629,3.707,24.215,10.367,26.184,10.367a5.167,5.167,0,0,0,4.844-3.859,6.1,6.1,0,0,0-3.027-7.492l-27.32-11.352a39.545,39.545,0,0,1,39.051-33.828h.906Zm80.594,0H172.393V420.682L204.1,434.455a5.91,5.91,0,0,0,4.539,0l31.707-13.773,0,23.234Zm0-35.645-33.977,14.758L172.47,408.271V381.783l31.707,13.773a5.91,5.91,0,0,0,4.539,0l31.707-13.773Zm0-38.82-33.977,14.758L172.47,369.451V342.963l31.707,13.773a5.91,5.91,0,0,0,4.539,0l31.707-13.773Zm0-38.82-33.977,14.758L172.47,330.631V304.143l31.707,13.773a5.91,5.91,0,0,0,4.539,0l31.707-13.773Zm0-38.9-33.977,14.758L172.47,291.733V265.245l31.707,13.773a5.91,5.91,0,0,0,4.539,0l31.707-13.773Zm0-38.824-33.977,14.758L172.47,252.909V226.421l31.707,13.773a5.91,5.91,0,0,0,4.539,0l31.707-13.773Zm0-38.82-33.977,14.758L172.47,214.089V187.6l31.707,13.773a5.91,5.91,0,0,0,4.539,0L240.423,187.6Zm0-38.82-33.977,14.758L172.47,175.269V148.781l31.707,13.773a5.91,5.91,0,0,0,4.539,0l31.707-13.773Zm0-38.9-33.977,14.758L172.47,136.371V109.883l31.707,13.773a5.91,5.91,0,0,0,4.539,0l31.707-13.773Zm0-38.82-33.977,14.758L172.47,97.551l0-26.41,31.707,13.773a5.91,5.91,0,0,0,4.539,0l31.707-13.773Zm0-38.824L206.447,73.485,172.47,58.727l0-9.535H240.5v9.535Zm53.2,67.957-27.547,11.5a6.1,6.1,0,0,0-3.027,7.492,5.255,5.255,0,0,0,4.844,3.859c1.891,0,17.1-6.434,25.73-10.215V170.5l-27.547,11.5a6.1,6.1,0,0,0-3.027,7.492,5.255,5.255,0,0,0,4.844,3.859c1.891,0,17.1-6.434,25.73-10.215v31.18l-27.547,11.5a6.1,6.1,0,0,0-3.027,7.492,5.255,5.255,0,0,0,4.844,3.859c1.891,0,17.1-6.434,25.73-10.215v31.18l-27.547,11.5a6.1,6.1,0,0,0-3.027,7.492A5.255,5.255,0,0,0,267.891,281c1.891,0,17.1-6.434,25.73-10.215v31.18l-27.547,11.5a6.1,6.1,0,0,0-3.027,7.492,5.255,5.255,0,0,0,4.844,3.859c1.891,0,17.1-6.434,25.73-10.215v31.18l-27.547,11.5a6.1,6.1,0,0,0-3.027,7.492,5.255,5.255,0,0,0,4.844,3.859c1.891,0,17.1-6.434,25.73-10.215v31.18l-27.547,11.5a6.1,6.1,0,0,0-3.027,7.492,5.255,5.255,0,0,0,4.844,3.859c1.891,0,17.1-6.434,25.73-10.215v2.422a39.727,39.727,0,0,1-39.73,39.73h-.906V49.19h.906a39.625,39.625,0,0,1,39.125,34.055l-26.941,11.2a6.1,6.1,0,0,0-3.027,7.492,5.255,5.255,0,0,0,4.844,3.859c1.891,0,17.1-6.434,25.73-10.215Zm173.75,351.97a32.234,32.234,0,0,1-32.164,32.164H387.686a32.234,32.234,0,0,1-32.164-32.164V400.709a13.3,13.3,0,0,0-13.242-13.242H304.971V368.549H342.28a32.234,32.234,0,0,1,32.164,32.164v77.945A13.3,13.3,0,0,0,387.686,491.9h47.523a13.3,13.3,0,0,0,13.242-13.242l0-130.32h18.918Zm26.109-151.12a9.464,9.464,0,0,1-9.461,9.461H431.806a9.464,9.464,0,0,1-9.461-9.461V301.2a135.16,135.16,0,0,0,35.645,4.918,133.586,133.586,0,0,0,35.492-4.918ZM457.99,294.843c-67.8,0-122.9-55.094-122.9-122.82a122.86,122.86,0,1,1,122.9,122.82Z" fill="#eb6f00"/>
    <path id="Caminho_9" data-name="Caminho 9" d="M457.91,190.7a19.74,19.74,0,0,0,5.676-38.672V115.4a5.676,5.676,0,0,0-11.352,0v36.629a19.685,19.685,0,0,0-14.152,18.844A19.946,19.946,0,0,0,457.91,190.7Zm0-28.305a8.477,8.477,0,1,1-8.477,8.477A8.56,8.56,0,0,1,457.91,162.395Z" fill="#eb6f00"/>
    <path id="Caminho_10" data-name="Caminho 10" d="M457.91,94.594a5.719,5.719,0,0,0,5.676-5.676V73.328a5.676,5.676,0,0,0-11.352,0v15.59a5.716,5.716,0,0,0,5.676,5.676Z" fill="#eb6f00"/>
    <path id="Caminho_11" data-name="Caminho 11" d="M416.97,105.57a5.182,5.182,0,0,0,2.8-.758,5.619,5.619,0,0,0,2.043-7.719l-7.793-13.469a5.646,5.646,0,0,0-9.762,5.676l7.793,13.469a5.8,5.8,0,0,0,4.918,2.8Z" fill="#eb6f00"/>
    <path id="Caminho_12" data-name="Caminho 12" d="M370.58,126.98l13.469,7.793a5.616,5.616,0,0,0,7.719-2.117,5.648,5.648,0,0,0-2.043-7.719l-13.469-7.793a5.585,5.585,0,0,0-7.719,2.043,5.657,5.657,0,0,0,2.043,7.793Z" fill="#eb6f00"/>
    <path id="Caminho_13" data-name="Caminho 13" d="M545.32,214.77l-13.469-7.793a5.646,5.646,0,1,0-5.676,9.762l13.469,7.793a5.646,5.646,0,0,0,5.676-9.762Z" fill="#eb6f00"/>
    <path id="Caminho_14" data-name="Caminho 14" d="M381.63,170.88a5.719,5.719,0,0,0-5.676-5.676h-15.59a5.676,5.676,0,1,0,0,11.352h15.59A5.719,5.719,0,0,0,381.63,170.88Z" fill="#eb6f00"/>
    <path id="Caminho_15" data-name="Caminho 15" d="M534.27,170.88a5.719,5.719,0,0,0,5.676,5.676h15.59a5.676,5.676,0,0,0,0-11.352h-15.59A5.719,5.719,0,0,0,534.27,170.88Z" fill="#eb6f00"/>
    <path id="Caminho_16" data-name="Caminho 16" d="M384.13,206.97l-13.469,7.793a5.619,5.619,0,0,0-2.043,7.719,5.719,5.719,0,0,0,4.918,2.875,5.182,5.182,0,0,0,2.8-.758l13.469-7.793a5.678,5.678,0,0,0-5.676-9.836Z" fill="#eb6f00"/>
    <path id="Caminho_17" data-name="Caminho 17" d="M539.64,117.14l-13.469,7.793a5.619,5.619,0,0,0-2.043,7.719,5.719,5.719,0,0,0,4.918,2.875,5.182,5.182,0,0,0,2.8-.758l13.469-7.793a5.619,5.619,0,0,0,2.043-7.719,5.694,5.694,0,0,0-7.719-2.117Z" fill="#eb6f00"/>
    <path id="Caminho_18" data-name="Caminho 18" d="M509.6,81.426a5.648,5.648,0,0,0-7.719,2.043l-7.793,13.469a5.648,5.648,0,0,0,2.043,7.719,5.616,5.616,0,0,0,7.719-2.117l7.793-13.469a5.549,5.549,0,0,0-2.043-7.645Z" fill="#eb6f00"/>
    <path id="Caminho_19" data-name="Caminho 19" d="M499.08,221.2H416.744a5.719,5.719,0,0,0-5.676,5.676v29.285a5.719,5.719,0,0,0,5.676,5.676H499.08a5.719,5.719,0,0,0,5.676-5.676V226.876A5.624,5.624,0,0,0,499.08,221.2ZM493.4,250.489H422.42V232.555H493.4Z" fill="#eb6f00"/>
  </g>
</svg>
